<svg width="106" height="27" viewBox="0 0 106 27" fill="none" xmlns="http://www.w3.org/2000/svg">
<path d="M40.1951 20.32C38.7551 20.32 37.5418 20.0067 36.5551 19.38C35.5685 18.74 34.8351 17.88 34.3551 16.8C33.8885 15.72 33.6885 14.52 33.7551 13.2C33.7951 12.2933 33.9818 11.3933 34.3151 10.5C34.6485 9.60666 35.1218 8.79999 35.7351 8.07999C36.3618 7.34666 37.1218 6.76666 38.0151 6.33999C38.9085 5.89999 39.9351 5.67999 41.0951 5.67999C41.4418 5.67999 41.8418 5.71999 42.2951 5.79999C42.7485 5.86666 43.2018 5.97332 43.6551 6.11999C44.1085 6.26666 44.5018 6.44666 44.8351 6.65999V5.81999H46.3751L46.1351 10.48H44.8151C44.7351 9.73332 44.5351 9.11332 44.2151 8.61999C43.8951 8.12666 43.4818 7.75332 42.9751 7.49999C42.4818 7.24666 41.9218 7.11999 41.2951 7.11999C40.6018 7.11999 39.9818 7.27999 39.4351 7.59999C38.9018 7.91999 38.4485 8.34666 38.0751 8.87999C37.7151 9.41332 37.4285 10.02 37.2151 10.7C37.0151 11.38 36.8951 12.08 36.8551 12.8C36.8018 13.9467 36.9085 14.9667 37.1751 15.86C37.4551 16.7533 37.8951 17.46 38.4951 17.98C39.1085 18.4867 39.8685 18.74 40.7751 18.74C41.0285 18.74 41.3351 18.72 41.6951 18.68C42.0551 18.64 42.4085 18.58 42.7551 18.5C43.1151 18.42 43.4218 18.32 43.6751 18.2L43.7751 16.34C43.8018 15.98 43.8285 15.6333 43.8551 15.3C43.8818 14.9667 43.9085 14.7133 43.9351 14.54C43.7218 14.5533 43.4551 14.5667 43.1351 14.58C42.8151 14.58 42.5818 14.5867 42.4351 14.6L42.5151 13.06H47.7751L47.7151 14.38C47.4885 14.3933 47.2885 14.42 47.1151 14.46C46.9551 14.5 46.8151 14.58 46.6951 14.7C46.5751 14.8067 46.4818 14.9733 46.4151 15.2C46.3618 15.4267 46.3218 15.7333 46.2951 16.12L46.1351 19.32H45.6351C45.2885 19.32 44.9351 19.3667 44.5751 19.46C44.2285 19.54 43.8618 19.64 43.4751 19.76C43.0218 19.8933 42.5285 20.02 41.9951 20.14C41.4618 20.26 40.8618 20.32 40.1951 20.32ZM49.9323 20C49.9057 19.72 49.8857 19.5267 49.8723 19.42C49.8723 19.3 49.8723 19.1733 49.8723 19.04C49.8723 18.76 49.8857 18.4267 49.9123 18.04C49.9523 17.64 49.999 17.2133 50.0523 16.76C50.1057 16.3067 50.159 15.86 50.2123 15.42C50.279 14.94 50.339 14.4867 50.3923 14.06C50.459 13.62 50.5057 13.2333 50.5323 12.9C50.5723 12.5667 50.5923 12.32 50.5923 12.16C50.5923 11.9333 50.559 11.7933 50.4923 11.74C50.439 11.6733 50.379 11.64 50.3123 11.64C50.1657 11.64 50.0123 11.7533 49.8523 11.98C49.6923 12.2067 49.5257 12.62 49.3523 13.22L48.2523 12.9C48.319 12.62 48.4123 12.3 48.5323 11.94C48.6523 11.58 48.819 11.24 49.0323 10.92C49.2457 10.5867 49.5057 10.3133 49.8123 10.1C50.119 9.88666 50.4923 9.77999 50.9323 9.77999C51.359 9.77999 51.7457 9.90666 52.0923 10.16C52.439 10.4133 52.6123 10.8933 52.6123 11.6C52.6123 11.8133 52.5923 12.0667 52.5523 12.36C52.5257 12.6533 52.479 12.9933 52.4123 13.38H52.4323C52.7923 12.3667 53.159 11.6067 53.5323 11.1C53.919 10.58 54.299 10.2333 54.6723 10.06C55.0457 9.87332 55.3923 9.77999 55.7123 9.77999C56.219 9.77999 56.6257 9.91999 56.9323 10.2C57.239 10.4667 57.3923 10.8333 57.3923 11.3C57.3923 11.6467 57.2657 11.96 57.0123 12.24C56.7723 12.52 56.4523 12.66 56.0523 12.66C55.759 12.66 55.499 12.5667 55.2723 12.38C55.0457 12.1933 54.939 11.94 54.9523 11.62C54.7257 11.5933 54.4923 11.7267 54.2523 12.02C54.0257 12.3 53.8057 12.6933 53.5923 13.2C53.3923 13.6933 53.2057 14.2467 53.0323 14.86C52.8723 15.4733 52.739 16.1 52.6323 16.74C52.539 17.38 52.4923 17.9867 52.4923 18.56C52.4923 18.7333 52.499 18.98 52.5123 19.3C52.5257 19.6067 52.539 19.84 52.5523 20H49.9323ZM62.7548 9.77999C63.3415 9.77999 63.8615 9.86666 64.3148 10.04C64.7682 10.2133 65.1215 10.4867 65.3748 10.86C65.6282 11.2333 65.7548 11.7133 65.7548 12.3C65.7548 12.8467 65.5882 13.3133 65.2548 13.7C64.9348 14.0733 64.5082 14.38 63.9748 14.62C63.4548 14.86 62.8815 15.06 62.2548 15.22C61.6282 15.3667 61.0215 15.48 60.4348 15.56C60.4348 16.32 60.5215 16.9067 60.6948 17.32C60.8815 17.72 61.1148 18 61.3948 18.16C61.6748 18.3067 61.9548 18.38 62.2348 18.38C62.4615 18.38 62.7282 18.34 63.0348 18.26C63.3548 18.1667 63.6748 17.98 63.9948 17.7C64.3148 17.42 64.5948 17.0067 64.8348 16.46L65.9548 17C65.5815 17.8667 65.1615 18.5333 64.6948 19C64.2282 19.4667 63.7415 19.7867 63.2348 19.96C62.7282 20.1333 62.2148 20.22 61.6948 20.22C60.4682 20.2333 59.4948 19.88 58.7748 19.16C58.0548 18.44 57.6948 17.34 57.6948 15.86C57.6948 15.22 57.7948 14.5467 57.9948 13.84C58.1948 13.1333 58.4948 12.4733 58.8948 11.86C59.3082 11.2467 59.8348 10.7467 60.4748 10.36C61.1148 9.97332 61.8748 9.77999 62.7548 9.77999ZM62.5348 11.1C62.0815 11.1 61.7148 11.26 61.4348 11.58C61.1548 11.9 60.9415 12.3067 60.7948 12.8C60.6482 13.28 60.5482 13.7667 60.4948 14.26C61.2148 14.1267 61.7882 13.9467 62.2148 13.72C62.6415 13.4933 62.9482 13.2333 63.1348 12.94C63.3348 12.6467 63.4282 12.34 63.4148 12.02C63.4015 11.6867 63.3015 11.4533 63.1148 11.32C62.9282 11.1733 62.7348 11.1 62.5348 11.1ZM71.6094 6.97999L71.2094 9.99999H73.7094L73.5894 11.38L71.0894 11.42C71.036 11.9 70.976 12.42 70.9094 12.98C70.8427 13.5267 70.7827 14.0667 70.7294 14.6C70.6894 15.12 70.6494 15.5933 70.6094 16.02C70.5827 16.4333 70.5694 16.7533 70.5694 16.98C70.5694 17.1533 70.5894 17.3467 70.6294 17.56C70.6694 17.76 70.756 17.9333 70.8894 18.08C71.0227 18.2267 71.236 18.3 71.5294 18.3C71.636 18.3 71.7894 18.2733 71.9894 18.22C72.2027 18.1533 72.4294 18.0333 72.6694 17.86C72.9094 17.6867 73.1294 17.4133 73.3294 17.04L74.3494 17.68C73.896 18.5333 73.3427 19.1733 72.6894 19.6C72.036 20.0133 71.336 20.22 70.5894 20.22C69.856 20.22 69.3027 20.0667 68.9294 19.76C68.5694 19.4533 68.3294 19.0533 68.2094 18.56C68.0894 18.0533 68.036 17.5267 68.0494 16.98C68.076 16.5267 68.1094 15.9933 68.1494 15.38C68.1894 14.7533 68.2427 14.1 68.3094 13.42C68.376 12.7267 68.4427 12.0667 68.5094 11.44L66.9094 11.46L67.0894 9.99999C68.076 9.99999 68.8027 9.73999 69.2694 9.21999C69.7494 8.69999 70.0827 7.95332 70.2694 6.97999H71.6094ZM80.98 9.77999C81.3533 9.77999 81.7867 9.81999 82.28 9.89999C82.7867 9.96666 83.3133 10.0667 83.86 10.2C83.7933 10.6933 83.7067 11.3 83.6 12.02C83.4933 12.74 83.3867 13.48 83.28 14.24C83.1867 14.9867 83.1067 15.68 83.04 16.32C82.9733 16.9467 82.94 17.4333 82.94 17.78C82.94 18.02 82.9667 18.18 83.02 18.26C83.0867 18.3267 83.1533 18.36 83.22 18.36C83.38 18.36 83.5467 18.2467 83.72 18.02C83.8933 17.7933 84.0667 17.38 84.24 16.78L85.32 17.1C85.2667 17.38 85.1733 17.7 85.04 18.06C84.9067 18.42 84.7267 18.7667 84.5 19.1C84.2867 19.42 84.0133 19.6867 83.68 19.9C83.36 20.1133 82.98 20.22 82.54 20.22C82.1133 20.22 81.74 20.0933 81.42 19.84C81.1 19.5867 80.94 19.1067 80.94 18.4C80.94 18.2267 80.9467 18.0333 80.96 17.82C80.9733 17.6067 80.9933 17.4133 81.02 17.24H81C80.76 17.8133 80.5 18.2933 80.22 18.68C79.9533 19.0667 79.6733 19.3733 79.38 19.6C79.1 19.8267 78.8067 19.9867 78.5 20.08C78.2067 20.1733 77.9067 20.22 77.6 20.22C76.8667 20.22 76.24 19.9267 75.72 19.34C75.2 18.74 74.94 17.82 74.94 16.58C74.94 15.66 75.0733 14.7933 75.34 13.98C75.6067 13.1667 76 12.4467 76.52 11.82C77.04 11.18 77.6733 10.68 78.42 10.32C79.1667 9.95999 80.02 9.77999 80.98 9.77999ZM80.24 11.1C79.8667 11.1 79.52 11.22 79.2 11.46C78.8933 11.7 78.62 12.0533 78.38 12.52C78.1533 12.9867 77.98 13.5667 77.86 14.26C77.74 14.9533 77.68 15.76 77.68 16.68C77.68 17.2267 77.7467 17.66 77.88 17.98C78.0133 18.2867 78.2 18.44 78.44 18.44C78.7333 18.44 79.0067 18.2933 79.26 18C79.5133 17.6933 79.74 17.2867 79.94 16.78C80.1533 16.26 80.3333 15.6867 80.48 15.06C80.64 14.42 80.7667 13.7733 80.86 13.12C80.9667 12.4533 81.0333 11.82 81.06 11.22C80.9933 11.1933 80.8733 11.1667 80.7 11.14C80.54 11.1133 80.3867 11.1 80.24 11.1ZM90.2765 4.89999C90.2365 5.31332 90.1899 5.71999 90.1366 6.11999C90.0965 6.50666 90.0565 6.87999 90.0165 7.23999C89.9765 7.59999 89.9365 7.95332 89.8965 8.29999C89.7499 9.57999 89.6232 10.7 89.5165 11.66C89.4099 12.6067 89.3165 13.4267 89.2365 14.12C89.1699 14.8 89.1099 15.3733 89.0565 15.84C89.0165 16.3067 88.9832 16.6933 88.9565 17C88.9432 17.3067 88.9365 17.5667 88.9365 17.78C88.9365 18.02 88.9632 18.18 89.0165 18.26C89.0832 18.3267 89.1499 18.36 89.2165 18.36C89.3765 18.36 89.5365 18.2467 89.6966 18.02C89.8565 17.7933 90.0232 17.38 90.1965 16.78L91.2765 17.1C91.1965 17.4333 91.0765 17.7867 90.9165 18.16C90.7699 18.52 90.5765 18.86 90.3365 19.18C90.0965 19.4867 89.7965 19.74 89.4365 19.94C89.0899 20.1267 88.6765 20.22 88.1965 20.22C87.7165 20.22 87.2965 20.0733 86.9365 19.78C86.5765 19.4867 86.3965 18.9933 86.3965 18.3C86.3965 17.82 86.4099 17.2933 86.4365 16.72C86.4765 16.1467 86.5232 15.54 86.5765 14.9C86.6299 14.26 86.6899 13.6067 86.7565 12.94C86.8365 12.26 86.9165 11.5733 86.9965 10.88C87.0765 10.1867 87.1565 9.49999 87.2365 8.81999C87.2632 8.55332 87.2965 8.25332 87.3365 7.91999C87.3899 7.57332 87.4432 7.25332 87.4965 6.95999C87.2832 6.97332 87.0299 6.98666 86.7365 6.99999C86.4565 6.99999 86.2432 7.00666 86.0965 7.01999L86.1765 5.49999C86.7899 5.49999 87.3032 5.46666 87.7165 5.39999C88.1299 5.33332 88.4565 5.25332 88.6965 5.15999C88.9365 5.06666 89.1032 4.97999 89.1965 4.89999H90.2765ZM98.8712 20.22C98.2846 20.22 97.8046 20.0333 97.4312 19.66C97.0579 19.2867 96.6912 18.6133 96.3312 17.64C96.1979 17.28 96.0779 16.96 95.9712 16.68C95.8646 16.4 95.7379 16.2133 95.5912 16.12C95.5379 16.08 95.4779 16.0533 95.4112 16.04C95.3579 16.0133 95.2979 16.0133 95.2312 16.04C95.1512 16.4133 95.0912 16.86 95.0512 17.38C95.0112 17.8867 94.9912 18.3133 94.9912 18.66C94.9912 18.8333 94.9979 19.0533 95.0112 19.32C95.0246 19.5867 95.0379 19.8133 95.0512 20H92.4512C92.4246 19.72 92.4046 19.52 92.3912 19.4C92.3912 19.28 92.3912 19.1533 92.3912 19.02C92.3912 18.8733 92.3979 18.5733 92.4112 18.12C92.4379 17.6533 92.4712 17.08 92.5112 16.4C92.5512 15.72 92.6046 14.9667 92.6712 14.14C92.7379 13.3 92.8112 12.4267 92.8912 11.52C92.9846 10.6133 93.0912 9.71332 93.2112 8.81999C93.2379 8.55332 93.2779 8.25332 93.3312 7.91999C93.3979 7.57332 93.4579 7.25332 93.5112 6.95999C93.2979 6.97332 93.0379 6.98666 92.7312 6.99999C92.4379 6.99999 92.2179 7.00666 92.0712 7.01999L92.1512 5.49999C92.7779 5.49999 93.2979 5.46666 93.7112 5.39999C94.1246 5.33332 94.4512 5.25332 94.6912 5.15999C94.9446 5.06666 95.1179 4.97999 95.2112 4.89999H96.2912C96.2246 5.37999 96.1512 5.87999 96.0712 6.39999C96.0046 6.90666 95.9379 7.42666 95.8712 7.95999C95.8046 8.47999 95.7379 9.01999 95.6712 9.57999C95.6179 10.1267 95.5512 10.6067 95.4712 11.02C95.4046 11.4333 95.3379 11.82 95.2712 12.18H95.2912C95.5846 11.5933 95.9112 11.1267 96.2712 10.78C96.6446 10.42 97.0179 10.1667 97.3912 10.02C97.7779 9.85999 98.1446 9.77999 98.4912 9.77999C98.9846 9.77999 99.3912 9.86666 99.7112 10.04C100.031 10.2133 100.265 10.46 100.411 10.78C100.571 11.0867 100.651 11.46 100.651 11.9C100.651 12.3 100.531 12.7467 100.291 13.24C100.065 13.7333 99.6712 14.1933 99.1112 14.62C98.5646 15.0467 97.8112 15.36 96.8512 15.56V15.58C97.4112 15.5933 97.8112 15.74 98.0512 16.02C98.3046 16.2867 98.4846 16.56 98.5912 16.84C98.7246 17.12 98.8379 17.3667 98.9312 17.58C99.0379 17.7933 99.1379 17.96 99.2312 18.08C99.3379 18.1867 99.4446 18.24 99.5512 18.24C99.6979 18.24 99.8379 18.14 99.9712 17.94C100.118 17.74 100.265 17.38 100.411 16.86L101.491 17.2C101.398 17.68 101.231 18.1533 100.991 18.62C100.765 19.0733 100.471 19.4533 100.111 19.76C99.7646 20.0667 99.3512 20.22 98.8712 20.22ZM95.3712 14.76C96.3579 14.76 97.0846 14.5133 97.5512 14.02C98.0179 13.5133 98.2512 12.8333 98.2512 11.98C98.2512 11.8067 98.2312 11.6533 98.1912 11.52C98.1646 11.3867 98.1112 11.2867 98.0312 11.22C97.9512 11.14 97.8512 11.1 97.7312 11.1C97.5179 11.1 97.2512 11.24 96.9312 11.52C96.6246 11.8 96.3246 12.2133 96.0312 12.76C95.7512 13.3067 95.5312 13.9733 95.3712 14.76Z" fill="#1E1E1E"/>
<path d="M16 23C21.5228 23 26 18.5228 26 13C26 7.47715 21.5228 3 16 3C10.4772 3 6 7.47715 6 13C6 18.5228 10.4772 23 16 23Z" fill="#1E1E1E"/>
</svg>
